@startuml

!include ../theme.puml

abstract class AbstractList <<stereo>>{


}
abstract AbstractCollection
interface List
interface Collection

List <|-- AbstractList : AList to List
Collection <|-- AbstractCollection : AColl to Coll

Collection <|- List : List to Coll
AbstractCollection <|- AbstractList : AList to AColl
AbstractList <|-- ArrayList : ArList to AList

package MyPackage{
    class ArrayList {
      Object[] elementData
      size()
    }

    enum TimeUnit {
      DAYS
      HOURS
      MINUTES
    }
}
annotation SuppressWarnings

annotation Annotation {
  annotation with members
  String foo()
  String bar()
}

@enduml